%TF.GenerationSoftware,KiCad,Pcbnew,no-vcs-found-a240f88~61~ubuntu14.04.1*%
%TF.CreationDate,2017-12-06T06:47:01+01:00*%
%TF.ProjectId,LCSDR,4C435344522E6B696361645F70636200,rev?*%
%TF.SameCoordinates,Original*%
%TF.FileFunction,Copper,L1,Top,Signal*%
%TF.FilePolarity,Positive*%
%FSLAX46Y46*%
G04 Gerber Fmt 4.6, Leading zero omitted, Abs format (unit mm)*
G04 Created by KiCad (PCBNEW no-vcs-found-a240f88~61~ubuntu14.04.1) date Wed Dec  6 06:47:01 2017*
%MOMM*%
%LPD*%
G01*
G04 APERTURE LIST*
%TA.AperFunction,SMDPad,CuDef*%
%ADD10R,1.600000X1.600000*%
%TD*%
%TA.AperFunction,ComponentPad*%
%ADD11R,1.300000X1.300000*%
%TD*%
%TA.AperFunction,ComponentPad*%
%ADD12C,1.300000*%
%TD*%
%TA.AperFunction,SMDPad,CuDef*%
%ADD13R,1.501140X2.148840*%
%TD*%
%TA.AperFunction,ComponentPad*%
%ADD14C,1.600000*%
%TD*%
%TA.AperFunction,ComponentPad*%
%ADD15R,1.600000X1.600000*%
%TD*%
%TA.AperFunction,ComponentPad*%
%ADD16O,1.700000X1.700000*%
%TD*%
%TA.AperFunction,ComponentPad*%
%ADD17R,1.700000X1.700000*%
%TD*%
%TA.AperFunction,SMDPad,CuDef*%
%ADD18R,3.657600X2.032000*%
%TD*%
%TA.AperFunction,SMDPad,CuDef*%
%ADD19R,1.016000X2.032000*%
%TD*%
%TA.AperFunction,ComponentPad*%
%ADD20C,4.700000*%
%TD*%
%TA.AperFunction,ComponentPad*%
%ADD21O,2.200000X2.200000*%
%TD*%
%TA.AperFunction,ComponentPad*%
%ADD22R,2.200000X2.200000*%
%TD*%
%TA.AperFunction,Conductor*%
%ADD23C,1.000000*%
%TD*%
%TA.AperFunction,Conductor*%
%ADD24C,0.354000*%
%TD*%
G04 APERTURE END LIST*
D10*
%TO.P,C1,1*%
%TO.N,Net-(C1-Pad1)*%
X21600000Y11150000D03*
%TO.P,C1,2*%
%TO.N,GND*%
X21600000Y8850000D03*
%TD*%
D11*
%TO.P,C2,1*%
%TO.N,Net-(C1-Pad1)*%
X16100000Y10650000D03*
D12*
%TO.P,C2,2*%
%TO.N,GND*%
X16100000Y8650000D03*
D13*
%TO.P,C2,1*%
%TO.N,Net-(C1-Pad1)*%
X16100000Y11151140D03*
%TO.P,C2,2*%
%TO.N,GND*%
X16100000Y8148860D03*
%TD*%
D14*
%TO.P,C3,2*%
%TO.N,GND*%
X38100000Y3400000D03*
D15*
%TO.P,C3,1*%
%TO.N,Net-(C3-Pad1)*%
X38100000Y5900000D03*
%TD*%
D10*
%TO.P,C4,2*%
%TO.N,GND*%
X32300000Y3550000D03*
%TO.P,C4,1*%
%TO.N,Net-(C3-Pad1)*%
X32300000Y5850000D03*
%TD*%
D16*
%TO.P,P1,2*%
%TO.N,GND*%
X11540000Y7000000D03*
D17*
%TO.P,P1,1*%
%TO.N,Net-(D1-Pad2)*%
X9000000Y7000000D03*
%TD*%
%TO.P,P2,1*%
%TO.N,Net-(C3-Pad1)*%
X43950000Y5950000D03*
D16*
%TO.P,P2,2*%
%TO.N,GND*%
X43950000Y3410000D03*
%TD*%
D18*
%TO.P,U1,4*%
%TO.N,Net-(C3-Pad1)*%
X27050000Y4548000D03*
D19*
%TO.P,U1,2*%
X27050000Y11152000D03*
%TO.P,U1,3*%
%TO.N,Net-(C1-Pad1)*%
X24764000Y11152000D03*
%TO.P,U1,1*%
%TO.N,GND*%
X29336000Y11152000D03*
%TD*%
D16*
%TO.P,P3,2*%
%TO.N,GND*%
X44000000Y12540000D03*
D17*
%TO.P,P3,1*%
%TO.N,Net-(C3-Pad1)*%
X44000000Y10000000D03*
%TD*%
%TO.P,P4,1*%
%TO.N,Net-(C1-Pad1)*%
X9000000Y13000000D03*
D16*
%TO.P,P4,2*%
%TO.N,GND*%
X11540000Y13000000D03*
%TD*%
D20*
%TO.P,P5,1*%
%TO.N,GND*%
X4000000Y8000000D03*
%TD*%
%TO.P,P6,1*%
%TO.N,GND*%
X50000000Y8000000D03*
%TD*%
D21*
%TO.P,D1,2*%
%TO.N,Net-(D1-Pad2)*%
X8300000Y3000000D03*
D22*
%TO.P,D1,1*%
%TO.N,Net-(C1-Pad1)*%
X21000000Y3000000D03*
%TD*%
D23*
%TO.N,Net-(C1-Pad1)*%
X21000000Y3000000D02*
X21000000Y5000000D01*
X19000000Y7000000D02*
X19000000Y13000000D01*
X21000000Y5000000D02*
X19000000Y7000000D01*
X9000000Y13000000D02*
X9000000Y11000000D01*
X14000000Y13000000D02*
X16100000Y13000000D01*
X14000000Y11000000D02*
X14000000Y13000000D01*
X13000000Y11000000D02*
X14000000Y11000000D01*
X9000000Y11000000D02*
X13000000Y11000000D01*
X21600000Y11150000D02*
X21600000Y13000000D01*
X16100000Y10650000D02*
X16100000Y13000000D01*
X24764000Y12236000D02*
X24764000Y11152000D01*
X24000000Y13000000D02*
X24764000Y12236000D01*
X16100000Y13000000D02*
X19000000Y13000000D01*
X19000000Y13000000D02*
X21600000Y13000000D01*
X21600000Y13000000D02*
X24000000Y13000000D01*
%TO.N,Net-(C3-Pad1)*%
X41500000Y9000000D02*
X41500000Y10000000D01*
X41500000Y10000000D02*
X44000000Y10000000D01*
X41500000Y9000000D02*
X41500000Y6500000D01*
X42050000Y5950000D02*
X43950000Y5950000D01*
X41500000Y6500000D02*
X42050000Y5950000D01*
X32300000Y5850000D02*
X32300000Y9000000D01*
X38100000Y5900000D02*
X38100000Y9000000D01*
X27050000Y9000000D02*
X32300000Y9000000D01*
X32300000Y9000000D02*
X38100000Y9000000D01*
X38100000Y9000000D02*
X41500000Y9000000D01*
X27050000Y11152000D02*
X27050000Y9000000D01*
X27050000Y9000000D02*
X27050000Y4548000D01*
%TO.N,Net-(D1-Pad2)*%
X9000000Y7000000D02*
X9000000Y3700000D01*
X9000000Y3700000D02*
X8300000Y3000000D01*
%TD*%
D24*
%TO.N,GND*%
G36*
X52423000Y9760999D02*
X52423000Y9653192D01*
X52417583Y9661299D01*
X52034739Y9925845D01*
X50108894Y8000000D01*
X52034739Y6074155D01*
X52417583Y6338701D01*
X52423000Y6351312D01*
X52423000Y6239001D01*
X47760998Y1577000D01*
X22517995Y1577000D01*
X22596423Y1694375D01*
X22637324Y1900000D01*
X22637324Y4100000D01*
X22596423Y4305625D01*
X22479945Y4479945D01*
X22305625Y4596423D01*
X22100000Y4637324D01*
X22027000Y4637324D01*
X22027000Y5000000D01*
X21948824Y5393016D01*
X21834577Y5564000D01*
X24683876Y5564000D01*
X24683876Y3532000D01*
X24724777Y3326375D01*
X24841255Y3152055D01*
X25015575Y3035577D01*
X25221200Y2994676D01*
X28878800Y2994676D01*
X29084425Y3035577D01*
X29258745Y3152055D01*
X29375223Y3326375D01*
X29378181Y3341250D01*
X30973000Y3341250D01*
X30973000Y2645173D01*
X31053231Y2451478D01*
X31201479Y2303231D01*
X31395173Y2223000D01*
X32091250Y2223000D01*
X32223000Y2354750D01*
X32223000Y3473000D01*
X32377000Y3473000D01*
X32377000Y2354750D01*
X32508750Y2223000D01*
X33204827Y2223000D01*
X33398521Y2303231D01*
X33546769Y2451478D01*
X33560123Y2483719D01*
X37292613Y2483719D01*
X37368311Y2261917D01*
X37859533Y2068543D01*
X38387364Y2077872D01*
X38831689Y2261917D01*
X38907387Y2483719D01*
X38100000Y3291106D01*
X37292613Y2483719D01*
X33560123Y2483719D01*
X33627000Y2645173D01*
X33627000Y3341250D01*
X33495250Y3473000D01*
X32377000Y3473000D01*
X32223000Y3473000D01*
X31104750Y3473000D01*
X30973000Y3341250D01*
X29378181Y3341250D01*
X29416124Y3532000D01*
X29416124Y5564000D01*
X29375223Y5769625D01*
X29258745Y5943945D01*
X29084425Y6060423D01*
X28878800Y6101324D01*
X28077000Y6101324D01*
X28077000Y7973000D01*
X31273000Y7973000D01*
X31273000Y7132141D01*
X31120055Y7029945D01*
X31003577Y6855625D01*
X30962676Y6650000D01*
X30962676Y5050000D01*
X31003577Y4844375D01*
X31101914Y4697205D01*
X31053231Y4648522D01*
X30973000Y4454827D01*
X30973000Y3758750D01*
X31104750Y3627000D01*
X32223000Y3627000D01*
X32223000Y3647000D01*
X32377000Y3647000D01*
X32377000Y3627000D01*
X33495250Y3627000D01*
X33508717Y3640467D01*
X36768543Y3640467D01*
X36777872Y3112636D01*
X36961917Y2668311D01*
X37183719Y2592613D01*
X37991106Y3400000D01*
X38208894Y3400000D01*
X39016281Y2592613D01*
X39238083Y2668311D01*
X39415451Y3118875D01*
X42604127Y3118875D01*
X42792462Y2664176D01*
X43165989Y2277978D01*
X43658874Y2064120D01*
X43873000Y2166898D01*
X43873000Y3333000D01*
X44027000Y3333000D01*
X44027000Y2166898D01*
X44241126Y2064120D01*
X44734011Y2277978D01*
X45107538Y2664176D01*
X45295873Y3118875D01*
X45192867Y3333000D01*
X44027000Y3333000D01*
X43873000Y3333000D01*
X42707133Y3333000D01*
X42604127Y3118875D01*
X39415451Y3118875D01*
X39431457Y3159533D01*
X39422128Y3687364D01*
X39238083Y4131689D01*
X39016281Y4207387D01*
X38208894Y3400000D01*
X37991106Y3400000D01*
X37183719Y4207387D01*
X36961917Y4131689D01*
X36768543Y3640467D01*
X33508717Y3640467D01*
X33627000Y3758750D01*
X33627000Y4454827D01*
X33546769Y4648522D01*
X33498086Y4697205D01*
X33596423Y4844375D01*
X33637324Y5050000D01*
X33637324Y6650000D01*
X33596423Y6855625D01*
X33479945Y7029945D01*
X33327000Y7132141D01*
X33327000Y7973000D01*
X37073000Y7973000D01*
X37073000Y7182141D01*
X36920055Y7079945D01*
X36803577Y6905625D01*
X36762676Y6700000D01*
X36762676Y5100000D01*
X36803577Y4894375D01*
X36920055Y4720055D01*
X37094375Y4603577D01*
X37300000Y4562676D01*
X37427684Y4562676D01*
X37368311Y4538083D01*
X37292613Y4316281D01*
X38100000Y3508894D01*
X38907387Y4316281D01*
X38831689Y4538083D01*
X38769216Y4562676D01*
X38900000Y4562676D01*
X39105625Y4603577D01*
X39279945Y4720055D01*
X39396423Y4894375D01*
X39437324Y5100000D01*
X39437324Y6700000D01*
X39396423Y6905625D01*
X39279945Y7079945D01*
X39127000Y7182141D01*
X39127000Y7973000D01*
X40473000Y7973000D01*
X40473000Y6500000D01*
X40551176Y6106984D01*
X40773801Y5773801D01*
X41323799Y5223804D01*
X41323801Y5223801D01*
X41656984Y5001176D01*
X42050000Y4923000D01*
X42597883Y4923000D01*
X42603577Y4894375D01*
X42720055Y4720055D01*
X42894375Y4603577D01*
X43100000Y4562676D01*
X43213591Y4562676D01*
X43165989Y4542022D01*
X42792462Y4155824D01*
X42604127Y3701125D01*
X42707133Y3487000D01*
X43873000Y3487000D01*
X43873000Y3507000D01*
X44027000Y3507000D01*
X44027000Y3487000D01*
X45192867Y3487000D01*
X45295873Y3701125D01*
X45107538Y4155824D01*
X44734011Y4542022D01*
X44686409Y4562676D01*
X44800000Y4562676D01*
X45005625Y4603577D01*
X45179945Y4720055D01*
X45296423Y4894375D01*
X45337324Y5100000D01*
X45337324Y5965261D01*
X48074155Y5965261D01*
X48338701Y5582417D01*
X49390328Y5130694D01*
X50534773Y5115796D01*
X51597803Y5539991D01*
X51661299Y5582417D01*
X51925845Y5965261D01*
X50000000Y7891106D01*
X48074155Y5965261D01*
X45337324Y5965261D01*
X45337324Y6800000D01*
X45296423Y7005625D01*
X45179945Y7179945D01*
X45005625Y7296423D01*
X44800000Y7337324D01*
X43100000Y7337324D01*
X42894375Y7296423D01*
X42720055Y7179945D01*
X42603577Y7005625D01*
X42597883Y6977000D01*
X42527000Y6977000D01*
X42527000Y7465227D01*
X47115796Y7465227D01*
X47539991Y6402197D01*
X47582417Y6338701D01*
X47965261Y6074155D01*
X49891106Y8000000D01*
X47965261Y9925845D01*
X47582417Y9661299D01*
X47130694Y8609672D01*
X47115796Y7465227D01*
X42527000Y7465227D01*
X42527000Y8973000D01*
X42647883Y8973000D01*
X42653577Y8944375D01*
X42770055Y8770055D01*
X42944375Y8653577D01*
X43150000Y8612676D01*
X44850000Y8612676D01*
X45055625Y8653577D01*
X45229945Y8770055D01*
X45346423Y8944375D01*
X45387324Y9150000D01*
X45387324Y10034739D01*
X48074155Y10034739D01*
X50000000Y8108894D01*
X51925845Y10034739D01*
X51661299Y10417583D01*
X50609672Y10869306D01*
X49465227Y10884204D01*
X48402197Y10460009D01*
X48338701Y10417583D01*
X48074155Y10034739D01*
X45387324Y10034739D01*
X45387324Y10850000D01*
X45346423Y11055625D01*
X45229945Y11229945D01*
X45055625Y11346423D01*
X44850000Y11387324D01*
X44736409Y11387324D01*
X44784011Y11407978D01*
X45157538Y11794176D01*
X45345873Y12248875D01*
X45242867Y12463000D01*
X44077000Y12463000D01*
X44077000Y12443000D01*
X43923000Y12443000D01*
X43923000Y12463000D01*
X42757133Y12463000D01*
X42654127Y12248875D01*
X42842462Y11794176D01*
X43215989Y11407978D01*
X43263591Y11387324D01*
X43150000Y11387324D01*
X42944375Y11346423D01*
X42770055Y11229945D01*
X42653577Y11055625D01*
X42647883Y11027000D01*
X41500000Y11027000D01*
X41106984Y10948824D01*
X40773801Y10726199D01*
X40551176Y10393016D01*
X40478371Y10027000D01*
X30369271Y10027000D01*
X30371000Y10031173D01*
X30371000Y10943250D01*
X30239250Y11075000D01*
X29413000Y11075000D01*
X29413000Y11055000D01*
X29259000Y11055000D01*
X29259000Y11075000D01*
X28432750Y11075000D01*
X28301000Y10943250D01*
X28301000Y10031173D01*
X28302729Y10027000D01*
X28077000Y10027000D01*
X28077000Y10043878D01*
X28095324Y10136000D01*
X28095324Y12168000D01*
X28074473Y12272827D01*
X28301000Y12272827D01*
X28301000Y11360750D01*
X28432750Y11229000D01*
X29259000Y11229000D01*
X29259000Y12563250D01*
X29413000Y12563250D01*
X29413000Y11229000D01*
X30239250Y11229000D01*
X30371000Y11360750D01*
X30371000Y12272827D01*
X30290769Y12466521D01*
X30142522Y12614769D01*
X29948827Y12695000D01*
X29544750Y12695000D01*
X29413000Y12563250D01*
X29259000Y12563250D01*
X29127250Y12695000D01*
X28723173Y12695000D01*
X28529478Y12614769D01*
X28381231Y12466521D01*
X28301000Y12272827D01*
X28074473Y12272827D01*
X28054423Y12373625D01*
X27937945Y12547945D01*
X27763625Y12664423D01*
X27558000Y12705324D01*
X26542000Y12705324D01*
X26336375Y12664423D01*
X26162055Y12547945D01*
X26045577Y12373625D01*
X26004676Y12168000D01*
X26004676Y10136000D01*
X26023000Y10043878D01*
X26023000Y6101324D01*
X25221200Y6101324D01*
X25015575Y6060423D01*
X24841255Y5943945D01*
X24724777Y5769625D01*
X24683876Y5564000D01*
X21834577Y5564000D01*
X21726199Y5726199D01*
X20027000Y7425398D01*
X20027000Y8641250D01*
X20273000Y8641250D01*
X20273000Y7945173D01*
X20353231Y7751478D01*
X20501479Y7603231D01*
X20695173Y7523000D01*
X21391250Y7523000D01*
X21523000Y7654750D01*
X21523000Y8773000D01*
X21677000Y8773000D01*
X21677000Y7654750D01*
X21808750Y7523000D01*
X22504827Y7523000D01*
X22698521Y7603231D01*
X22846769Y7751478D01*
X22927000Y7945173D01*
X22927000Y8641250D01*
X22795250Y8773000D01*
X21677000Y8773000D01*
X21523000Y8773000D01*
X20404750Y8773000D01*
X20273000Y8641250D01*
X20027000Y8641250D01*
X20027000Y11973000D01*
X20267251Y11973000D01*
X20262676Y11950000D01*
X20262676Y10350000D01*
X20303577Y10144375D01*
X20401914Y9997205D01*
X20353231Y9948522D01*
X20273000Y9754827D01*
X20273000Y9058750D01*
X20404750Y8927000D01*
X21523000Y8927000D01*
X21523000Y8947000D01*
X21677000Y8947000D01*
X21677000Y8927000D01*
X22795250Y8927000D01*
X22927000Y9058750D01*
X22927000Y9754827D01*
X22846769Y9948522D01*
X22798086Y9997205D01*
X22896423Y10144375D01*
X22937324Y10350000D01*
X22937324Y11950000D01*
X22932749Y11973000D01*
X23574602Y11973000D01*
X23718676Y11828926D01*
X23718676Y10136000D01*
X23759577Y9930375D01*
X23876055Y9756055D01*
X24050375Y9639577D01*
X24256000Y9598676D01*
X25272000Y9598676D01*
X25477625Y9639577D01*
X25651945Y9756055D01*
X25768423Y9930375D01*
X25809324Y10136000D01*
X25809324Y12168000D01*
X25768423Y12373625D01*
X25761591Y12383850D01*
X25712824Y12629016D01*
X25577780Y12831125D01*
X42654127Y12831125D01*
X42757133Y12617000D01*
X43923000Y12617000D01*
X43923000Y13783102D01*
X44077000Y13783102D01*
X44077000Y12617000D01*
X45242867Y12617000D01*
X45345873Y12831125D01*
X45157538Y13285824D01*
X44784011Y13672022D01*
X44291126Y13885880D01*
X44077000Y13783102D01*
X43923000Y13783102D01*
X43708874Y13885880D01*
X43215989Y13672022D01*
X42842462Y13285824D01*
X42654127Y12831125D01*
X25577780Y12831125D01*
X25490199Y12962199D01*
X24726199Y13726199D01*
X24393016Y13948824D01*
X24000000Y14027000D01*
X14000000Y14027000D01*
X13606984Y13948824D01*
X13273801Y13726199D01*
X13051176Y13393016D01*
X12973000Y13000000D01*
X12973000Y12027000D01*
X12476622Y12027000D01*
X12672022Y12215989D01*
X12885880Y12708874D01*
X12783102Y12923000D01*
X11617000Y12923000D01*
X11617000Y12903000D01*
X11463000Y12903000D01*
X11463000Y12923000D01*
X11443000Y12923000D01*
X11443000Y13077000D01*
X11463000Y13077000D01*
X11463000Y14242867D01*
X11617000Y14242867D01*
X11617000Y13077000D01*
X12783102Y13077000D01*
X12885880Y13291126D01*
X12672022Y13784011D01*
X12285824Y14157538D01*
X11831125Y14345873D01*
X11617000Y14242867D01*
X11463000Y14242867D01*
X11248875Y14345873D01*
X10794176Y14157538D01*
X10407978Y13784011D01*
X10387324Y13736409D01*
X10387324Y13850000D01*
X10346423Y14055625D01*
X10229945Y14229945D01*
X10055625Y14346423D01*
X9850000Y14387324D01*
X8150000Y14387324D01*
X7944375Y14346423D01*
X7770055Y14229945D01*
X7653577Y14055625D01*
X7612676Y13850000D01*
X7612676Y12150000D01*
X7653577Y11944375D01*
X7770055Y11770055D01*
X7944375Y11653577D01*
X7973000Y11647883D01*
X7973000Y11000000D01*
X8051176Y10606984D01*
X8273801Y10273801D01*
X8606984Y10051176D01*
X9000000Y9973000D01*
X14000000Y9973000D01*
X14393016Y10051176D01*
X14726199Y10273801D01*
X14812106Y10402370D01*
X14812106Y10076720D01*
X14853007Y9871095D01*
X14969485Y9696775D01*
X15034316Y9653456D01*
X14902661Y9521802D01*
X14822430Y9328107D01*
X14822430Y8357610D01*
X14954180Y8225860D01*
X14995786Y8225860D01*
X15059575Y8071860D01*
X14954180Y8071860D01*
X14822430Y7940110D01*
X14822430Y6969613D01*
X14902661Y6775918D01*
X15050909Y6627671D01*
X15244603Y6547440D01*
X15891250Y6547440D01*
X16023000Y6679190D01*
X16023000Y7470714D01*
X16177000Y7474555D01*
X16177000Y6679190D01*
X16308750Y6547440D01*
X16955397Y6547440D01*
X17149091Y6627671D01*
X17297339Y6775918D01*
X17377570Y6969613D01*
X17377570Y7940110D01*
X17245820Y8071860D01*
X17138589Y8071860D01*
X17197923Y8225860D01*
X17245820Y8225860D01*
X17377570Y8357610D01*
X17377570Y9328107D01*
X17297339Y9521802D01*
X17165684Y9653456D01*
X17230515Y9696775D01*
X17346993Y9871095D01*
X17387894Y10076720D01*
X17387894Y11973000D01*
X17973000Y11973000D01*
X17973000Y7000000D01*
X18051176Y6606984D01*
X18273801Y6273801D01*
X19910278Y4637324D01*
X19900000Y4637324D01*
X19694375Y4596423D01*
X19520055Y4479945D01*
X19403577Y4305625D01*
X19362676Y4100000D01*
X19362676Y1900000D01*
X19403577Y1694375D01*
X19482005Y1577000D01*
X9074457Y1577000D01*
X9482338Y1849537D01*
X9835027Y2377374D01*
X9958875Y3000000D01*
X9909514Y3248153D01*
X9948824Y3306984D01*
X10027000Y3700000D01*
X10027000Y5647883D01*
X10055625Y5653577D01*
X10229945Y5770055D01*
X10346423Y5944375D01*
X10387324Y6150000D01*
X10387324Y6263591D01*
X10407978Y6215989D01*
X10794176Y5842462D01*
X11248875Y5654127D01*
X11463000Y5757133D01*
X11463000Y6923000D01*
X11617000Y6923000D01*
X11617000Y5757133D01*
X11831125Y5654127D01*
X12285824Y5842462D01*
X12672022Y6215989D01*
X12885880Y6708874D01*
X12783102Y6923000D01*
X11617000Y6923000D01*
X11463000Y6923000D01*
X11443000Y6923000D01*
X11443000Y7077000D01*
X11463000Y7077000D01*
X11463000Y8242867D01*
X11617000Y8242867D01*
X11617000Y7077000D01*
X12783102Y7077000D01*
X12885880Y7291126D01*
X12672022Y7784011D01*
X12285824Y8157538D01*
X11831125Y8345873D01*
X11617000Y8242867D01*
X11463000Y8242867D01*
X11248875Y8345873D01*
X10794176Y8157538D01*
X10407978Y7784011D01*
X10387324Y7736409D01*
X10387324Y7850000D01*
X10346423Y8055625D01*
X10229945Y8229945D01*
X10055625Y8346423D01*
X9850000Y8387324D01*
X8150000Y8387324D01*
X7944375Y8346423D01*
X7770055Y8229945D01*
X7653577Y8055625D01*
X7612676Y7850000D01*
X7612676Y6150000D01*
X7653577Y5944375D01*
X7770055Y5770055D01*
X7944375Y5653577D01*
X7973000Y5647883D01*
X7973000Y4568296D01*
X7645499Y4503152D01*
X7117662Y4150463D01*
X6764973Y3622626D01*
X6641125Y3000000D01*
X6764973Y2377374D01*
X7117662Y1849537D01*
X7525543Y1577000D01*
X6239001Y1577000D01*
X1850741Y5965261D01*
X2074155Y5965261D01*
X2338701Y5582417D01*
X3390328Y5130694D01*
X4534773Y5115796D01*
X5597803Y5539991D01*
X5661299Y5582417D01*
X5925845Y5965261D01*
X4000000Y7891106D01*
X2074155Y5965261D01*
X1850741Y5965261D01*
X1577000Y6239002D01*
X1577000Y6346808D01*
X1582417Y6338701D01*
X1965261Y6074155D01*
X3891106Y8000000D01*
X4108894Y8000000D01*
X6034739Y6074155D01*
X6417583Y6338701D01*
X6869306Y7390328D01*
X6884204Y8534773D01*
X6460009Y9597803D01*
X6417583Y9661299D01*
X6034739Y9925845D01*
X4108894Y8000000D01*
X3891106Y8000000D01*
X1965261Y9925845D01*
X1582417Y9661299D01*
X1577000Y9648688D01*
X1577000Y9760998D01*
X1850740Y10034739D01*
X2074155Y10034739D01*
X4000000Y8108894D01*
X5925845Y10034739D01*
X5661299Y10417583D01*
X4609672Y10869306D01*
X3465227Y10884204D01*
X2402197Y10460009D01*
X2338701Y10417583D01*
X2074155Y10034739D01*
X1850740Y10034739D01*
X6239001Y14423000D01*
X47760998Y14423000D01*
X52423000Y9760999D01*
X52423000Y9760999D01*
G37*
X52423000Y9760999D02*
X52423000Y9653192D01*
X52417583Y9661299D01*
X52034739Y9925845D01*
X50108894Y8000000D01*
X52034739Y6074155D01*
X52417583Y6338701D01*
X52423000Y6351312D01*
X52423000Y6239001D01*
X47760998Y1577000D01*
X22517995Y1577000D01*
X22596423Y1694375D01*
X22637324Y1900000D01*
X22637324Y4100000D01*
X22596423Y4305625D01*
X22479945Y4479945D01*
X22305625Y4596423D01*
X22100000Y4637324D01*
X22027000Y4637324D01*
X22027000Y5000000D01*
X21948824Y5393016D01*
X21834577Y5564000D01*
X24683876Y5564000D01*
X24683876Y3532000D01*
X24724777Y3326375D01*
X24841255Y3152055D01*
X25015575Y3035577D01*
X25221200Y2994676D01*
X28878800Y2994676D01*
X29084425Y3035577D01*
X29258745Y3152055D01*
X29375223Y3326375D01*
X29378181Y3341250D01*
X30973000Y3341250D01*
X30973000Y2645173D01*
X31053231Y2451478D01*
X31201479Y2303231D01*
X31395173Y2223000D01*
X32091250Y2223000D01*
X32223000Y2354750D01*
X32223000Y3473000D01*
X32377000Y3473000D01*
X32377000Y2354750D01*
X32508750Y2223000D01*
X33204827Y2223000D01*
X33398521Y2303231D01*
X33546769Y2451478D01*
X33560123Y2483719D01*
X37292613Y2483719D01*
X37368311Y2261917D01*
X37859533Y2068543D01*
X38387364Y2077872D01*
X38831689Y2261917D01*
X38907387Y2483719D01*
X38100000Y3291106D01*
X37292613Y2483719D01*
X33560123Y2483719D01*
X33627000Y2645173D01*
X33627000Y3341250D01*
X33495250Y3473000D01*
X32377000Y3473000D01*
X32223000Y3473000D01*
X31104750Y3473000D01*
X30973000Y3341250D01*
X29378181Y3341250D01*
X29416124Y3532000D01*
X29416124Y5564000D01*
X29375223Y5769625D01*
X29258745Y5943945D01*
X29084425Y6060423D01*
X28878800Y6101324D01*
X28077000Y6101324D01*
X28077000Y7973000D01*
X31273000Y7973000D01*
X31273000Y7132141D01*
X31120055Y7029945D01*
X31003577Y6855625D01*
X30962676Y6650000D01*
X30962676Y5050000D01*
X31003577Y4844375D01*
X31101914Y4697205D01*
X31053231Y4648522D01*
X30973000Y4454827D01*
X30973000Y3758750D01*
X31104750Y3627000D01*
X32223000Y3627000D01*
X32223000Y3647000D01*
X32377000Y3647000D01*
X32377000Y3627000D01*
X33495250Y3627000D01*
X33508717Y3640467D01*
X36768543Y3640467D01*
X36777872Y3112636D01*
X36961917Y2668311D01*
X37183719Y2592613D01*
X37991106Y3400000D01*
X38208894Y3400000D01*
X39016281Y2592613D01*
X39238083Y2668311D01*
X39415451Y3118875D01*
X42604127Y3118875D01*
X42792462Y2664176D01*
X43165989Y2277978D01*
X43658874Y2064120D01*
X43873000Y2166898D01*
X43873000Y3333000D01*
X44027000Y3333000D01*
X44027000Y2166898D01*
X44241126Y2064120D01*
X44734011Y2277978D01*
X45107538Y2664176D01*
X45295873Y3118875D01*
X45192867Y3333000D01*
X44027000Y3333000D01*
X43873000Y3333000D01*
X42707133Y3333000D01*
X42604127Y3118875D01*
X39415451Y3118875D01*
X39431457Y3159533D01*
X39422128Y3687364D01*
X39238083Y4131689D01*
X39016281Y4207387D01*
X38208894Y3400000D01*
X37991106Y3400000D01*
X37183719Y4207387D01*
X36961917Y4131689D01*
X36768543Y3640467D01*
X33508717Y3640467D01*
X33627000Y3758750D01*
X33627000Y4454827D01*
X33546769Y4648522D01*
X33498086Y4697205D01*
X33596423Y4844375D01*
X33637324Y5050000D01*
X33637324Y6650000D01*
X33596423Y6855625D01*
X33479945Y7029945D01*
X33327000Y7132141D01*
X33327000Y7973000D01*
X37073000Y7973000D01*
X37073000Y7182141D01*
X36920055Y7079945D01*
X36803577Y6905625D01*
X36762676Y6700000D01*
X36762676Y5100000D01*
X36803577Y4894375D01*
X36920055Y4720055D01*
X37094375Y4603577D01*
X37300000Y4562676D01*
X37427684Y4562676D01*
X37368311Y4538083D01*
X37292613Y4316281D01*
X38100000Y3508894D01*
X38907387Y4316281D01*
X38831689Y4538083D01*
X38769216Y4562676D01*
X38900000Y4562676D01*
X39105625Y4603577D01*
X39279945Y4720055D01*
X39396423Y4894375D01*
X39437324Y5100000D01*
X39437324Y6700000D01*
X39396423Y6905625D01*
X39279945Y7079945D01*
X39127000Y7182141D01*
X39127000Y7973000D01*
X40473000Y7973000D01*
X40473000Y6500000D01*
X40551176Y6106984D01*
X40773801Y5773801D01*
X41323799Y5223804D01*
X41323801Y5223801D01*
X41656984Y5001176D01*
X42050000Y4923000D01*
X42597883Y4923000D01*
X42603577Y4894375D01*
X42720055Y4720055D01*
X42894375Y4603577D01*
X43100000Y4562676D01*
X43213591Y4562676D01*
X43165989Y4542022D01*
X42792462Y4155824D01*
X42604127Y3701125D01*
X42707133Y3487000D01*
X43873000Y3487000D01*
X43873000Y3507000D01*
X44027000Y3507000D01*
X44027000Y3487000D01*
X45192867Y3487000D01*
X45295873Y3701125D01*
X45107538Y4155824D01*
X44734011Y4542022D01*
X44686409Y4562676D01*
X44800000Y4562676D01*
X45005625Y4603577D01*
X45179945Y4720055D01*
X45296423Y4894375D01*
X45337324Y5100000D01*
X45337324Y5965261D01*
X48074155Y5965261D01*
X48338701Y5582417D01*
X49390328Y5130694D01*
X50534773Y5115796D01*
X51597803Y5539991D01*
X51661299Y5582417D01*
X51925845Y5965261D01*
X50000000Y7891106D01*
X48074155Y5965261D01*
X45337324Y5965261D01*
X45337324Y6800000D01*
X45296423Y7005625D01*
X45179945Y7179945D01*
X45005625Y7296423D01*
X44800000Y7337324D01*
X43100000Y7337324D01*
X42894375Y7296423D01*
X42720055Y7179945D01*
X42603577Y7005625D01*
X42597883Y6977000D01*
X42527000Y6977000D01*
X42527000Y7465227D01*
X47115796Y7465227D01*
X47539991Y6402197D01*
X47582417Y6338701D01*
X47965261Y6074155D01*
X49891106Y8000000D01*
X47965261Y9925845D01*
X47582417Y9661299D01*
X47130694Y8609672D01*
X47115796Y7465227D01*
X42527000Y7465227D01*
X42527000Y8973000D01*
X42647883Y8973000D01*
X42653577Y8944375D01*
X42770055Y8770055D01*
X42944375Y8653577D01*
X43150000Y8612676D01*
X44850000Y8612676D01*
X45055625Y8653577D01*
X45229945Y8770055D01*
X45346423Y8944375D01*
X45387324Y9150000D01*
X45387324Y10034739D01*
X48074155Y10034739D01*
X50000000Y8108894D01*
X51925845Y10034739D01*
X51661299Y10417583D01*
X50609672Y10869306D01*
X49465227Y10884204D01*
X48402197Y10460009D01*
X48338701Y10417583D01*
X48074155Y10034739D01*
X45387324Y10034739D01*
X45387324Y10850000D01*
X45346423Y11055625D01*
X45229945Y11229945D01*
X45055625Y11346423D01*
X44850000Y11387324D01*
X44736409Y11387324D01*
X44784011Y11407978D01*
X45157538Y11794176D01*
X45345873Y12248875D01*
X45242867Y12463000D01*
X44077000Y12463000D01*
X44077000Y12443000D01*
X43923000Y12443000D01*
X43923000Y12463000D01*
X42757133Y12463000D01*
X42654127Y12248875D01*
X42842462Y11794176D01*
X43215989Y11407978D01*
X43263591Y11387324D01*
X43150000Y11387324D01*
X42944375Y11346423D01*
X42770055Y11229945D01*
X42653577Y11055625D01*
X42647883Y11027000D01*
X41500000Y11027000D01*
X41106984Y10948824D01*
X40773801Y10726199D01*
X40551176Y10393016D01*
X40478371Y10027000D01*
X30369271Y10027000D01*
X30371000Y10031173D01*
X30371000Y10943250D01*
X30239250Y11075000D01*
X29413000Y11075000D01*
X29413000Y11055000D01*
X29259000Y11055000D01*
X29259000Y11075000D01*
X28432750Y11075000D01*
X28301000Y10943250D01*
X28301000Y10031173D01*
X28302729Y10027000D01*
X28077000Y10027000D01*
X28077000Y10043878D01*
X28095324Y10136000D01*
X28095324Y12168000D01*
X28074473Y12272827D01*
X28301000Y12272827D01*
X28301000Y11360750D01*
X28432750Y11229000D01*
X29259000Y11229000D01*
X29259000Y12563250D01*
X29413000Y12563250D01*
X29413000Y11229000D01*
X30239250Y11229000D01*
X30371000Y11360750D01*
X30371000Y12272827D01*
X30290769Y12466521D01*
X30142522Y12614769D01*
X29948827Y12695000D01*
X29544750Y12695000D01*
X29413000Y12563250D01*
X29259000Y12563250D01*
X29127250Y12695000D01*
X28723173Y12695000D01*
X28529478Y12614769D01*
X28381231Y12466521D01*
X28301000Y12272827D01*
X28074473Y12272827D01*
X28054423Y12373625D01*
X27937945Y12547945D01*
X27763625Y12664423D01*
X27558000Y12705324D01*
X26542000Y12705324D01*
X26336375Y12664423D01*
X26162055Y12547945D01*
X26045577Y12373625D01*
X26004676Y12168000D01*
X26004676Y10136000D01*
X26023000Y10043878D01*
X26023000Y6101324D01*
X25221200Y6101324D01*
X25015575Y6060423D01*
X24841255Y5943945D01*
X24724777Y5769625D01*
X24683876Y5564000D01*
X21834577Y5564000D01*
X21726199Y5726199D01*
X20027000Y7425398D01*
X20027000Y8641250D01*
X20273000Y8641250D01*
X20273000Y7945173D01*
X20353231Y7751478D01*
X20501479Y7603231D01*
X20695173Y7523000D01*
X21391250Y7523000D01*
X21523000Y7654750D01*
X21523000Y8773000D01*
X21677000Y8773000D01*
X21677000Y7654750D01*
X21808750Y7523000D01*
X22504827Y7523000D01*
X22698521Y7603231D01*
X22846769Y7751478D01*
X22927000Y7945173D01*
X22927000Y8641250D01*
X22795250Y8773000D01*
X21677000Y8773000D01*
X21523000Y8773000D01*
X20404750Y8773000D01*
X20273000Y8641250D01*
X20027000Y8641250D01*
X20027000Y11973000D01*
X20267251Y11973000D01*
X20262676Y11950000D01*
X20262676Y10350000D01*
X20303577Y10144375D01*
X20401914Y9997205D01*
X20353231Y9948522D01*
X20273000Y9754827D01*
X20273000Y9058750D01*
X20404750Y8927000D01*
X21523000Y8927000D01*
X21523000Y8947000D01*
X21677000Y8947000D01*
X21677000Y8927000D01*
X22795250Y8927000D01*
X22927000Y9058750D01*
X22927000Y9754827D01*
X22846769Y9948522D01*
X22798086Y9997205D01*
X22896423Y10144375D01*
X22937324Y10350000D01*
X22937324Y11950000D01*
X22932749Y11973000D01*
X23574602Y11973000D01*
X23718676Y11828926D01*
X23718676Y10136000D01*
X23759577Y9930375D01*
X23876055Y9756055D01*
X24050375Y9639577D01*
X24256000Y9598676D01*
X25272000Y9598676D01*
X25477625Y9639577D01*
X25651945Y9756055D01*
X25768423Y9930375D01*
X25809324Y10136000D01*
X25809324Y12168000D01*
X25768423Y12373625D01*
X25761591Y12383850D01*
X25712824Y12629016D01*
X25577780Y12831125D01*
X42654127Y12831125D01*
X42757133Y12617000D01*
X43923000Y12617000D01*
X43923000Y13783102D01*
X44077000Y13783102D01*
X44077000Y12617000D01*
X45242867Y12617000D01*
X45345873Y12831125D01*
X45157538Y13285824D01*
X44784011Y13672022D01*
X44291126Y13885880D01*
X44077000Y13783102D01*
X43923000Y13783102D01*
X43708874Y13885880D01*
X43215989Y13672022D01*
X42842462Y13285824D01*
X42654127Y12831125D01*
X25577780Y12831125D01*
X25490199Y12962199D01*
X24726199Y13726199D01*
X24393016Y13948824D01*
X24000000Y14027000D01*
X14000000Y14027000D01*
X13606984Y13948824D01*
X13273801Y13726199D01*
X13051176Y13393016D01*
X12973000Y13000000D01*
X12973000Y12027000D01*
X12476622Y12027000D01*
X12672022Y12215989D01*
X12885880Y12708874D01*
X12783102Y12923000D01*
X11617000Y12923000D01*
X11617000Y12903000D01*
X11463000Y12903000D01*
X11463000Y12923000D01*
X11443000Y12923000D01*
X11443000Y13077000D01*
X11463000Y13077000D01*
X11463000Y14242867D01*
X11617000Y14242867D01*
X11617000Y13077000D01*
X12783102Y13077000D01*
X12885880Y13291126D01*
X12672022Y13784011D01*
X12285824Y14157538D01*
X11831125Y14345873D01*
X11617000Y14242867D01*
X11463000Y14242867D01*
X11248875Y14345873D01*
X10794176Y14157538D01*
X10407978Y13784011D01*
X10387324Y13736409D01*
X10387324Y13850000D01*
X10346423Y14055625D01*
X10229945Y14229945D01*
X10055625Y14346423D01*
X9850000Y14387324D01*
X8150000Y14387324D01*
X7944375Y14346423D01*
X7770055Y14229945D01*
X7653577Y14055625D01*
X7612676Y13850000D01*
X7612676Y12150000D01*
X7653577Y11944375D01*
X7770055Y11770055D01*
X7944375Y11653577D01*
X7973000Y11647883D01*
X7973000Y11000000D01*
X8051176Y10606984D01*
X8273801Y10273801D01*
X8606984Y10051176D01*
X9000000Y9973000D01*
X14000000Y9973000D01*
X14393016Y10051176D01*
X14726199Y10273801D01*
X14812106Y10402370D01*
X14812106Y10076720D01*
X14853007Y9871095D01*
X14969485Y9696775D01*
X15034316Y9653456D01*
X14902661Y9521802D01*
X14822430Y9328107D01*
X14822430Y8357610D01*
X14954180Y8225860D01*
X14995786Y8225860D01*
X15059575Y8071860D01*
X14954180Y8071860D01*
X14822430Y7940110D01*
X14822430Y6969613D01*
X14902661Y6775918D01*
X15050909Y6627671D01*
X15244603Y6547440D01*
X15891250Y6547440D01*
X16023000Y6679190D01*
X16023000Y7470714D01*
X16177000Y7474555D01*
X16177000Y6679190D01*
X16308750Y6547440D01*
X16955397Y6547440D01*
X17149091Y6627671D01*
X17297339Y6775918D01*
X17377570Y6969613D01*
X17377570Y7940110D01*
X17245820Y8071860D01*
X17138589Y8071860D01*
X17197923Y8225860D01*
X17245820Y8225860D01*
X17377570Y8357610D01*
X17377570Y9328107D01*
X17297339Y9521802D01*
X17165684Y9653456D01*
X17230515Y9696775D01*
X17346993Y9871095D01*
X17387894Y10076720D01*
X17387894Y11973000D01*
X17973000Y11973000D01*
X17973000Y7000000D01*
X18051176Y6606984D01*
X18273801Y6273801D01*
X19910278Y4637324D01*
X19900000Y4637324D01*
X19694375Y4596423D01*
X19520055Y4479945D01*
X19403577Y4305625D01*
X19362676Y4100000D01*
X19362676Y1900000D01*
X19403577Y1694375D01*
X19482005Y1577000D01*
X9074457Y1577000D01*
X9482338Y1849537D01*
X9835027Y2377374D01*
X9958875Y3000000D01*
X9909514Y3248153D01*
X9948824Y3306984D01*
X10027000Y3700000D01*
X10027000Y5647883D01*
X10055625Y5653577D01*
X10229945Y5770055D01*
X10346423Y5944375D01*
X10387324Y6150000D01*
X10387324Y6263591D01*
X10407978Y6215989D01*
X10794176Y5842462D01*
X11248875Y5654127D01*
X11463000Y5757133D01*
X11463000Y6923000D01*
X11617000Y6923000D01*
X11617000Y5757133D01*
X11831125Y5654127D01*
X12285824Y5842462D01*
X12672022Y6215989D01*
X12885880Y6708874D01*
X12783102Y6923000D01*
X11617000Y6923000D01*
X11463000Y6923000D01*
X11443000Y6923000D01*
X11443000Y7077000D01*
X11463000Y7077000D01*
X11463000Y8242867D01*
X11617000Y8242867D01*
X11617000Y7077000D01*
X12783102Y7077000D01*
X12885880Y7291126D01*
X12672022Y7784011D01*
X12285824Y8157538D01*
X11831125Y8345873D01*
X11617000Y8242867D01*
X11463000Y8242867D01*
X11248875Y8345873D01*
X10794176Y8157538D01*
X10407978Y7784011D01*
X10387324Y7736409D01*
X10387324Y7850000D01*
X10346423Y8055625D01*
X10229945Y8229945D01*
X10055625Y8346423D01*
X9850000Y8387324D01*
X8150000Y8387324D01*
X7944375Y8346423D01*
X7770055Y8229945D01*
X7653577Y8055625D01*
X7612676Y7850000D01*
X7612676Y6150000D01*
X7653577Y5944375D01*
X7770055Y5770055D01*
X7944375Y5653577D01*
X7973000Y5647883D01*
X7973000Y4568296D01*
X7645499Y4503152D01*
X7117662Y4150463D01*
X6764973Y3622626D01*
X6641125Y3000000D01*
X6764973Y2377374D01*
X7117662Y1849537D01*
X7525543Y1577000D01*
X6239001Y1577000D01*
X1850741Y5965261D01*
X2074155Y5965261D01*
X2338701Y5582417D01*
X3390328Y5130694D01*
X4534773Y5115796D01*
X5597803Y5539991D01*
X5661299Y5582417D01*
X5925845Y5965261D01*
X4000000Y7891106D01*
X2074155Y5965261D01*
X1850741Y5965261D01*
X1577000Y6239002D01*
X1577000Y6346808D01*
X1582417Y6338701D01*
X1965261Y6074155D01*
X3891106Y8000000D01*
X4108894Y8000000D01*
X6034739Y6074155D01*
X6417583Y6338701D01*
X6869306Y7390328D01*
X6884204Y8534773D01*
X6460009Y9597803D01*
X6417583Y9661299D01*
X6034739Y9925845D01*
X4108894Y8000000D01*
X3891106Y8000000D01*
X1965261Y9925845D01*
X1582417Y9661299D01*
X1577000Y9648688D01*
X1577000Y9760998D01*
X1850740Y10034739D01*
X2074155Y10034739D01*
X4000000Y8108894D01*
X5925845Y10034739D01*
X5661299Y10417583D01*
X4609672Y10869306D01*
X3465227Y10884204D01*
X2402197Y10460009D01*
X2338701Y10417583D01*
X2074155Y10034739D01*
X1850740Y10034739D01*
X6239001Y14423000D01*
X47760998Y14423000D01*
X52423000Y9760999D01*
%TD*%
M02*
