%TF.GenerationSoftware,KiCad,Pcbnew,no-vcs-found-a240f88~61~ubuntu14.04.1*%
%TF.CreationDate,2017-12-09T13:37:58+01:00*%
%TF.ProjectId,LCSDR,4C435344522E6B696361645F70636200,rev?*%
%TF.SameCoordinates,Original*%
%TF.FileFunction,Copper,L1,Top,Signal*%
%TF.FilePolarity,Positive*%
%FSLAX46Y46*%
G04 Gerber Fmt 4.6, Leading zero omitted, Abs format (unit mm)*
G04 Created by KiCad (PCBNEW no-vcs-found-a240f88~61~ubuntu14.04.1) date Sat Dec  9 13:37:58 2017*
%MOMM*%
%LPD*%
G01*
G04 APERTURE LIST*
%TA.AperFunction,ComponentPad*%
%ADD10R,1.300000X1.300000*%
%TD*%
%TA.AperFunction,ComponentPad*%
%ADD11C,1.300000*%
%TD*%
%TA.AperFunction,SMDPad,CuDef*%
%ADD12R,1.501140X2.148840*%
%TD*%
%TA.AperFunction,ComponentPad*%
%ADD13O,2.000000X2.000000*%
%TD*%
%TA.AperFunction,ComponentPad*%
%ADD14R,2.000000X2.000000*%
%TD*%
%TA.AperFunction,ComponentPad*%
%ADD15O,2.500000X2.500000*%
%TD*%
%TA.AperFunction,ComponentPad*%
%ADD16R,2.500000X2.500000*%
%TD*%
%TA.AperFunction,SMDPad,CuDef*%
%ADD17R,1.600000X1.600000*%
%TD*%
%TA.AperFunction,ComponentPad*%
%ADD18C,1.600000*%
%TD*%
%TA.AperFunction,ComponentPad*%
%ADD19R,1.600000X1.600000*%
%TD*%
%TA.AperFunction,SMDPad,CuDef*%
%ADD20R,3.657600X2.032000*%
%TD*%
%TA.AperFunction,SMDPad,CuDef*%
%ADD21R,1.016000X2.032000*%
%TD*%
%TA.AperFunction,ComponentPad*%
%ADD22C,4.700000*%
%TD*%
%TA.AperFunction,Conductor*%
%ADD23C,0.400000*%
%TD*%
%TA.AperFunction,Conductor*%
%ADD24C,1.000000*%
%TD*%
%TA.AperFunction,Conductor*%
%ADD25C,0.354000*%
%TD*%
G04 APERTURE END LIST*
D10*
%TO.P,C2,1*%
%TO.N,Net-(C1-Pad1)*%
X20000000Y5400000D03*
D11*
%TO.P,C2,2*%
%TO.N,GND*%
X20000000Y3400000D03*
D12*
%TO.P,C2,1*%
%TO.N,Net-(C1-Pad1)*%
X20000000Y5901140D03*
%TO.P,C2,2*%
%TO.N,GND*%
X20000000Y2898860D03*
%TD*%
D13*
%TO.P,P1,3*%
%TO.N,Net-(D1-Pad2)*%
X10500000Y10580000D03*
%TO.P,P1,2*%
%TO.N,GND*%
X10500000Y8040000D03*
D14*
%TO.P,P1,1*%
%TO.N,Net-(C1-Pad1)*%
X10500000Y5500000D03*
%TD*%
D15*
%TO.P,D1,2*%
%TO.N,Net-(D1-Pad2)*%
X13700000Y11200000D03*
D16*
%TO.P,D1,1*%
%TO.N,Net-(C1-Pad1)*%
X26400000Y11200000D03*
%TD*%
D13*
%TO.P,P2,4*%
%TO.N,GND*%
X46700000Y3280000D03*
%TO.P,P2,3*%
%TO.N,Net-(C3-Pad1)*%
X46700000Y5820000D03*
%TO.P,P2,2*%
X46700000Y8360000D03*
D14*
%TO.P,P2,1*%
%TO.N,GND*%
X46700000Y10900000D03*
%TD*%
D17*
%TO.P,C1,1*%
%TO.N,Net-(C1-Pad1)*%
X25800000Y5850000D03*
%TO.P,C1,2*%
%TO.N,GND*%
X25800000Y3550000D03*
%TD*%
D18*
%TO.P,C3,2*%
%TO.N,GND*%
X41400000Y3500000D03*
D19*
%TO.P,C3,1*%
%TO.N,Net-(C3-Pad1)*%
X41400000Y6000000D03*
%TD*%
D17*
%TO.P,C4,2*%
%TO.N,GND*%
X37200000Y4850000D03*
%TO.P,C4,1*%
%TO.N,Net-(C3-Pad1)*%
X37200000Y7150000D03*
%TD*%
D20*
%TO.P,U1,4*%
%TO.N,Net-(C3-Pad1)*%
X31600000Y4498000D03*
D21*
%TO.P,U1,2*%
X31600000Y11102000D03*
%TO.P,U1,3*%
%TO.N,Net-(C1-Pad1)*%
X29314000Y11102000D03*
%TO.P,U1,1*%
%TO.N,GND*%
X33886000Y11102000D03*
%TD*%
D22*
%TO.P,P5,1*%
%TO.N,GND*%
X5000000Y8000000D03*
%TD*%
%TO.P,P6,1*%
%TO.N,GND*%
X53000000Y8000000D03*
%TD*%
%TO.P,P7,1*%
%TO.N,GND*%
X73000000Y8000000D03*
%TD*%
D23*
%TO.N,GND*%
X20000000Y3400000D02*
X22400000Y3400000D01*
X22550000Y3550000D02*
X25800000Y3550000D01*
X22400000Y3400000D02*
X22550000Y3550000D01*
X20000000Y3400000D02*
X8600000Y3400000D01*
X9040000Y8040000D02*
X10500000Y8040000D01*
X8000000Y7000000D02*
X9040000Y8040000D01*
X8000000Y4000000D02*
X8000000Y7000000D01*
X8600000Y3400000D02*
X8000000Y4000000D01*
X20150000Y3550000D02*
X20000000Y3400000D01*
D24*
%TO.N,Net-(C1-Pad1)*%
X10500000Y5500000D02*
X13500000Y5500000D01*
X17000000Y9000000D02*
X20000000Y9000000D01*
X13500000Y5500000D02*
X17000000Y9000000D01*
X26400000Y11200000D02*
X26400000Y9000000D01*
X28000000Y9000000D02*
X29314000Y9000000D01*
X20000000Y5400000D02*
X20000000Y9000000D01*
X25800000Y5850000D02*
X25800000Y9000000D01*
X29314000Y11102000D02*
X29314000Y9000000D01*
X28000000Y9000000D02*
X26400000Y9000000D01*
X26400000Y9000000D02*
X25800000Y9000000D01*
X25800000Y9000000D02*
X20000000Y9000000D01*
%TO.N,Net-(C3-Pad1)*%
X37200000Y7150000D02*
X37200000Y9000000D01*
X41400000Y6000000D02*
X41400000Y9000000D01*
X45000000Y7000000D02*
X46700000Y7000000D01*
X46700000Y8360000D02*
X46700000Y7000000D01*
X46700000Y7000000D02*
X46700000Y5820000D01*
X31600000Y9000000D02*
X37200000Y9000000D01*
X37200000Y9000000D02*
X41400000Y9000000D01*
X41400000Y9000000D02*
X43000000Y9000000D01*
X45000000Y7000000D02*
X46000000Y7000000D01*
X43000000Y9000000D02*
X45000000Y7000000D01*
X31600000Y11102000D02*
X31600000Y9000000D01*
X31600000Y9000000D02*
X31600000Y4498000D01*
%TO.N,Net-(D1-Pad2)*%
X10500000Y10580000D02*
X13080000Y10580000D01*
X13080000Y10580000D02*
X13700000Y11200000D01*
%TD*%
D25*
%TO.N,GND*%
G36*
X75823000Y8688150D02*
X75460009Y9597803D01*
X75417583Y9661299D01*
X75034739Y9925845D01*
X73108894Y8000000D01*
X75034739Y6074155D01*
X75417583Y6338701D01*
X75823000Y7282526D01*
X75823000Y1177000D01*
X2177000Y1177000D01*
X2177000Y5965261D01*
X3074155Y5965261D01*
X3338701Y5582417D01*
X4390328Y5130694D01*
X5534773Y5115796D01*
X6597803Y5539991D01*
X6661299Y5582417D01*
X6925845Y5965261D01*
X5000000Y7891106D01*
X3074155Y5965261D01*
X2177000Y5965261D01*
X2177000Y7311850D01*
X2539991Y6402197D01*
X2582417Y6338701D01*
X2965261Y6074155D01*
X4891106Y8000000D01*
X5108894Y8000000D01*
X7034739Y6074155D01*
X7417583Y6338701D01*
X7486868Y6500000D01*
X8962676Y6500000D01*
X8962676Y4500000D01*
X9003577Y4294375D01*
X9120055Y4120055D01*
X9294375Y4003577D01*
X9500000Y3962676D01*
X11500000Y3962676D01*
X11705625Y4003577D01*
X11879945Y4120055D01*
X11996423Y4294375D01*
X12031953Y4473000D01*
X13500000Y4473000D01*
X13893016Y4551176D01*
X14226199Y4773801D01*
X17425397Y7973000D01*
X18973000Y7973000D01*
X18973000Y7424672D01*
X18869485Y7355505D01*
X18753007Y7181185D01*
X18712106Y6975560D01*
X18712106Y4826720D01*
X18753007Y4621095D01*
X18869485Y4446775D01*
X18934316Y4403456D01*
X18802661Y4271802D01*
X18722430Y4078107D01*
X18722430Y3107610D01*
X18854180Y2975860D01*
X18895786Y2975860D01*
X18959575Y2821860D01*
X18854180Y2821860D01*
X18722430Y2690110D01*
X18722430Y1719613D01*
X18802661Y1525918D01*
X18950909Y1377671D01*
X19144603Y1297440D01*
X19791250Y1297440D01*
X19923000Y1429190D01*
X19923000Y2220714D01*
X20077000Y2224555D01*
X20077000Y1429190D01*
X20208750Y1297440D01*
X20855397Y1297440D01*
X21049091Y1377671D01*
X21197339Y1525918D01*
X21277570Y1719613D01*
X21277570Y2690110D01*
X21145820Y2821860D01*
X21038589Y2821860D01*
X21097923Y2975860D01*
X21145820Y2975860D01*
X21277570Y3107610D01*
X21277570Y3341250D01*
X24473000Y3341250D01*
X24473000Y2645173D01*
X24553231Y2451478D01*
X24701479Y2303231D01*
X24895173Y2223000D01*
X25591250Y2223000D01*
X25723000Y2354750D01*
X25723000Y3473000D01*
X25877000Y3473000D01*
X25877000Y2354750D01*
X26008750Y2223000D01*
X26704827Y2223000D01*
X26898521Y2303231D01*
X27046769Y2451478D01*
X27101544Y2583719D01*
X40592613Y2583719D01*
X40668311Y2361917D01*
X41159533Y2168543D01*
X41687364Y2177872D01*
X42131689Y2361917D01*
X42207387Y2583719D01*
X41400000Y3391106D01*
X40592613Y2583719D01*
X27101544Y2583719D01*
X27127000Y2645173D01*
X27127000Y3341250D01*
X26995250Y3473000D01*
X25877000Y3473000D01*
X25723000Y3473000D01*
X24604750Y3473000D01*
X24473000Y3341250D01*
X21277570Y3341250D01*
X21277570Y4078107D01*
X21197339Y4271802D01*
X21065684Y4403456D01*
X21130515Y4446775D01*
X21246993Y4621095D01*
X21287894Y4826720D01*
X21287894Y6975560D01*
X21246993Y7181185D01*
X21130515Y7355505D01*
X21027000Y7424672D01*
X21027000Y7973000D01*
X24773000Y7973000D01*
X24773000Y7132141D01*
X24620055Y7029945D01*
X24503577Y6855625D01*
X24462676Y6650000D01*
X24462676Y5050000D01*
X24503577Y4844375D01*
X24601914Y4697205D01*
X24553231Y4648522D01*
X24473000Y4454827D01*
X24473000Y3758750D01*
X24604750Y3627000D01*
X25723000Y3627000D01*
X25723000Y3647000D01*
X25877000Y3647000D01*
X25877000Y3627000D01*
X26995250Y3627000D01*
X27127000Y3758750D01*
X27127000Y4454827D01*
X27046769Y4648522D01*
X26998086Y4697205D01*
X27096423Y4844375D01*
X27137324Y5050000D01*
X27137324Y5514000D01*
X29233876Y5514000D01*
X29233876Y3482000D01*
X29274777Y3276375D01*
X29391255Y3102055D01*
X29565575Y2985577D01*
X29771200Y2944676D01*
X33428800Y2944676D01*
X33634425Y2985577D01*
X33808745Y3102055D01*
X33925223Y3276375D01*
X33966124Y3482000D01*
X33966124Y4641250D01*
X35873000Y4641250D01*
X35873000Y3945173D01*
X35953231Y3751478D01*
X36101479Y3603231D01*
X36295173Y3523000D01*
X36991250Y3523000D01*
X37123000Y3654750D01*
X37123000Y4773000D01*
X37277000Y4773000D01*
X37277000Y3654750D01*
X37408750Y3523000D01*
X38104827Y3523000D01*
X38298521Y3603231D01*
X38435757Y3740467D01*
X40068543Y3740467D01*
X40077872Y3212636D01*
X40261917Y2768311D01*
X40483719Y2692613D01*
X41291106Y3500000D01*
X41508894Y3500000D01*
X42316281Y2692613D01*
X42538083Y2768311D01*
X42615659Y2965377D01*
X45205764Y2965377D01*
X45420939Y2445885D01*
X45837504Y2019903D01*
X46385376Y1785759D01*
X46623000Y1886687D01*
X46623000Y3203000D01*
X46777000Y3203000D01*
X46777000Y1886687D01*
X47014624Y1785759D01*
X47562496Y2019903D01*
X47979061Y2445885D01*
X48194236Y2965377D01*
X48093124Y3203000D01*
X46777000Y3203000D01*
X46623000Y3203000D01*
X45306876Y3203000D01*
X45205764Y2965377D01*
X42615659Y2965377D01*
X42731457Y3259533D01*
X42722128Y3787364D01*
X42538083Y4231689D01*
X42316281Y4307387D01*
X41508894Y3500000D01*
X41291106Y3500000D01*
X40483719Y4307387D01*
X40261917Y4231689D01*
X40068543Y3740467D01*
X38435757Y3740467D01*
X38446769Y3751478D01*
X38527000Y3945173D01*
X38527000Y4641250D01*
X38395250Y4773000D01*
X37277000Y4773000D01*
X37123000Y4773000D01*
X36004750Y4773000D01*
X35873000Y4641250D01*
X33966124Y4641250D01*
X33966124Y5514000D01*
X33925223Y5719625D01*
X33808745Y5893945D01*
X33634425Y6010423D01*
X33428800Y6051324D01*
X32627000Y6051324D01*
X32627000Y7973000D01*
X35867251Y7973000D01*
X35862676Y7950000D01*
X35862676Y6350000D01*
X35903577Y6144375D01*
X36001914Y5997205D01*
X35953231Y5948522D01*
X35873000Y5754827D01*
X35873000Y5058750D01*
X36004750Y4927000D01*
X37123000Y4927000D01*
X37123000Y4947000D01*
X37277000Y4947000D01*
X37277000Y4927000D01*
X38395250Y4927000D01*
X38527000Y5058750D01*
X38527000Y5754827D01*
X38446769Y5948522D01*
X38398086Y5997205D01*
X38496423Y6144375D01*
X38537324Y6350000D01*
X38537324Y7950000D01*
X38532749Y7973000D01*
X40373000Y7973000D01*
X40373000Y7282141D01*
X40220055Y7179945D01*
X40103577Y7005625D01*
X40062676Y6800000D01*
X40062676Y5200000D01*
X40103577Y4994375D01*
X40220055Y4820055D01*
X40394375Y4703577D01*
X40600000Y4662676D01*
X40727684Y4662676D01*
X40668311Y4638083D01*
X40592613Y4416281D01*
X41400000Y3608894D01*
X42207387Y4416281D01*
X42131689Y4638083D01*
X42069216Y4662676D01*
X42200000Y4662676D01*
X42405625Y4703577D01*
X42579945Y4820055D01*
X42696423Y4994375D01*
X42737324Y5200000D01*
X42737324Y6800000D01*
X42696423Y7005625D01*
X42579945Y7179945D01*
X42427000Y7282141D01*
X42427000Y7973000D01*
X42574602Y7973000D01*
X44273801Y6273801D01*
X44606984Y6051176D01*
X45000000Y5973000D01*
X45173518Y5973000D01*
X45143084Y5820000D01*
X45259320Y5235642D01*
X45590332Y4740248D01*
X45869448Y4553749D01*
X45837504Y4540097D01*
X45420939Y4114115D01*
X45205764Y3594623D01*
X45306876Y3357000D01*
X46623000Y3357000D01*
X46623000Y3377000D01*
X46777000Y3377000D01*
X46777000Y3357000D01*
X48093124Y3357000D01*
X48194236Y3594623D01*
X47979061Y4114115D01*
X47562496Y4540097D01*
X47530552Y4553749D01*
X47809668Y4740248D01*
X48140680Y5235642D01*
X48256916Y5820000D01*
X48228022Y5965261D01*
X51074155Y5965261D01*
X51338701Y5582417D01*
X52390328Y5130694D01*
X53534773Y5115796D01*
X54597803Y5539991D01*
X54661299Y5582417D01*
X54925845Y5965261D01*
X71074155Y5965261D01*
X71338701Y5582417D01*
X72390328Y5130694D01*
X73534773Y5115796D01*
X74597803Y5539991D01*
X74661299Y5582417D01*
X74925845Y5965261D01*
X73000000Y7891106D01*
X71074155Y5965261D01*
X54925845Y5965261D01*
X53000000Y7891106D01*
X51074155Y5965261D01*
X48228022Y5965261D01*
X48140680Y6404358D01*
X47809668Y6899752D01*
X47727000Y6954989D01*
X47727000Y7225011D01*
X47809668Y7280248D01*
X47933267Y7465227D01*
X50115796Y7465227D01*
X50539991Y6402197D01*
X50582417Y6338701D01*
X50965261Y6074155D01*
X52891106Y8000000D01*
X53108894Y8000000D01*
X55034739Y6074155D01*
X55417583Y6338701D01*
X55869306Y7390328D01*
X55870281Y7465227D01*
X70115796Y7465227D01*
X70539991Y6402197D01*
X70582417Y6338701D01*
X70965261Y6074155D01*
X72891106Y8000000D01*
X70965261Y9925845D01*
X70582417Y9661299D01*
X70130694Y8609672D01*
X70115796Y7465227D01*
X55870281Y7465227D01*
X55884204Y8534773D01*
X55460009Y9597803D01*
X55417583Y9661299D01*
X55034739Y9925845D01*
X53108894Y8000000D01*
X52891106Y8000000D01*
X50965261Y9925845D01*
X50582417Y9661299D01*
X50130694Y8609672D01*
X50115796Y7465227D01*
X47933267Y7465227D01*
X48140680Y7775642D01*
X48256916Y8360000D01*
X48140680Y8944358D01*
X47843552Y9389041D01*
X47998522Y9453231D01*
X48146769Y9601479D01*
X48227000Y9795173D01*
X48227000Y10034739D01*
X51074155Y10034739D01*
X53000000Y8108894D01*
X54925845Y10034739D01*
X71074155Y10034739D01*
X73000000Y8108894D01*
X74925845Y10034739D01*
X74661299Y10417583D01*
X73609672Y10869306D01*
X72465227Y10884204D01*
X71402197Y10460009D01*
X71338701Y10417583D01*
X71074155Y10034739D01*
X54925845Y10034739D01*
X54661299Y10417583D01*
X53609672Y10869306D01*
X52465227Y10884204D01*
X51402197Y10460009D01*
X51338701Y10417583D01*
X51074155Y10034739D01*
X48227000Y10034739D01*
X48227000Y10691250D01*
X48095250Y10823000D01*
X46777000Y10823000D01*
X46777000Y10803000D01*
X46623000Y10803000D01*
X46623000Y10823000D01*
X45304750Y10823000D01*
X45173000Y10691250D01*
X45173000Y9795173D01*
X45253231Y9601479D01*
X45401478Y9453231D01*
X45556448Y9389041D01*
X45259320Y8944358D01*
X45143084Y8360000D01*
X45155669Y8296729D01*
X43726199Y9726199D01*
X43393016Y9948824D01*
X43000000Y10027000D01*
X34921000Y10027000D01*
X34921000Y10893250D01*
X34789250Y11025000D01*
X33963000Y11025000D01*
X33963000Y11005000D01*
X33809000Y11005000D01*
X33809000Y11025000D01*
X32982750Y11025000D01*
X32851000Y10893250D01*
X32851000Y10027000D01*
X32633588Y10027000D01*
X32645324Y10086000D01*
X32645324Y12118000D01*
X32624473Y12222827D01*
X32851000Y12222827D01*
X32851000Y11310750D01*
X32982750Y11179000D01*
X33809000Y11179000D01*
X33809000Y12513250D01*
X33963000Y12513250D01*
X33963000Y11179000D01*
X34789250Y11179000D01*
X34921000Y11310750D01*
X34921000Y12004827D01*
X45173000Y12004827D01*
X45173000Y11108750D01*
X45304750Y10977000D01*
X46623000Y10977000D01*
X46623000Y12295250D01*
X46777000Y12295250D01*
X46777000Y10977000D01*
X48095250Y10977000D01*
X48227000Y11108750D01*
X48227000Y12004827D01*
X48146769Y12198521D01*
X47998522Y12346769D01*
X47804827Y12427000D01*
X46908750Y12427000D01*
X46777000Y12295250D01*
X46623000Y12295250D01*
X46491250Y12427000D01*
X45595173Y12427000D01*
X45401478Y12346769D01*
X45253231Y12198521D01*
X45173000Y12004827D01*
X34921000Y12004827D01*
X34921000Y12222827D01*
X34840769Y12416521D01*
X34692522Y12564769D01*
X34498827Y12645000D01*
X34094750Y12645000D01*
X33963000Y12513250D01*
X33809000Y12513250D01*
X33677250Y12645000D01*
X33273173Y12645000D01*
X33079478Y12564769D01*
X32931231Y12416521D01*
X32851000Y12222827D01*
X32624473Y12222827D01*
X32604423Y12323625D01*
X32487945Y12497945D01*
X32313625Y12614423D01*
X32108000Y12655324D01*
X31092000Y12655324D01*
X30886375Y12614423D01*
X30712055Y12497945D01*
X30595577Y12323625D01*
X30554676Y12118000D01*
X30554676Y10086000D01*
X30573000Y9993878D01*
X30573000Y6051324D01*
X29771200Y6051324D01*
X29565575Y6010423D01*
X29391255Y5893945D01*
X29274777Y5719625D01*
X29233876Y5514000D01*
X27137324Y5514000D01*
X27137324Y6650000D01*
X27096423Y6855625D01*
X26979945Y7029945D01*
X26827000Y7132141D01*
X26827000Y7973000D01*
X29314000Y7973000D01*
X29707016Y8051176D01*
X30040199Y8273801D01*
X30262824Y8606984D01*
X30341000Y9000000D01*
X30341000Y9993878D01*
X30359324Y10086000D01*
X30359324Y12118000D01*
X30318423Y12323625D01*
X30201945Y12497945D01*
X30027625Y12614423D01*
X29822000Y12655324D01*
X28806000Y12655324D01*
X28600375Y12614423D01*
X28426055Y12497945D01*
X28309577Y12323625D01*
X28268676Y12118000D01*
X28268676Y10086000D01*
X28280412Y10027000D01*
X28187324Y10027000D01*
X28187324Y12450000D01*
X28146423Y12655625D01*
X28029945Y12829945D01*
X27855625Y12946423D01*
X27650000Y12987324D01*
X25150000Y12987324D01*
X24944375Y12946423D01*
X24770055Y12829945D01*
X24653577Y12655625D01*
X24612676Y12450000D01*
X24612676Y10027000D01*
X17000000Y10027000D01*
X16606984Y9948824D01*
X16273801Y9726199D01*
X16273799Y9726196D01*
X13074602Y6527000D01*
X12031953Y6527000D01*
X11996423Y6705625D01*
X11879945Y6879945D01*
X11705625Y6996423D01*
X11595626Y7018303D01*
X11779061Y7205885D01*
X11994236Y7725377D01*
X11893124Y7963000D01*
X10577000Y7963000D01*
X10577000Y7943000D01*
X10423000Y7943000D01*
X10423000Y7963000D01*
X9106876Y7963000D01*
X9005764Y7725377D01*
X9220939Y7205885D01*
X9404374Y7018303D01*
X9294375Y6996423D01*
X9120055Y6879945D01*
X9003577Y6705625D01*
X8962676Y6500000D01*
X7486868Y6500000D01*
X7869306Y7390328D01*
X7884204Y8534773D01*
X7460009Y9597803D01*
X7417583Y9661299D01*
X7034739Y9925845D01*
X5108894Y8000000D01*
X4891106Y8000000D01*
X2965261Y9925845D01*
X2582417Y9661299D01*
X2177000Y8717474D01*
X2177000Y10034739D01*
X3074155Y10034739D01*
X5000000Y8108894D01*
X6925845Y10034739D01*
X6661299Y10417583D01*
X6283187Y10580000D01*
X8943084Y10580000D01*
X9059320Y9995642D01*
X9390332Y9500248D01*
X9669448Y9313749D01*
X9637504Y9300097D01*
X9220939Y8874115D01*
X9005764Y8354623D01*
X9106876Y8117000D01*
X10423000Y8117000D01*
X10423000Y8137000D01*
X10577000Y8137000D01*
X10577000Y8117000D01*
X11893124Y8117000D01*
X11994236Y8354623D01*
X11779061Y8874115D01*
X11362496Y9300097D01*
X11330552Y9313749D01*
X11609668Y9500248D01*
X11644916Y9553000D01*
X13011633Y9553000D01*
X13665187Y9423000D01*
X13734813Y9423000D01*
X14414841Y9558266D01*
X14991342Y9943471D01*
X15376547Y10519972D01*
X15511813Y11200000D01*
X15376547Y11880028D01*
X14991342Y12456529D01*
X14414841Y12841734D01*
X13734813Y12977000D01*
X13665187Y12977000D01*
X12985159Y12841734D01*
X12408658Y12456529D01*
X12023453Y11880028D01*
X11969144Y11607000D01*
X11644916Y11607000D01*
X11609668Y11659752D01*
X11114274Y11990764D01*
X10529916Y12107000D01*
X10470084Y12107000D01*
X9885726Y11990764D01*
X9390332Y11659752D01*
X9059320Y11164358D01*
X8943084Y10580000D01*
X6283187Y10580000D01*
X5609672Y10869306D01*
X4465227Y10884204D01*
X3402197Y10460009D01*
X3338701Y10417583D01*
X3074155Y10034739D01*
X2177000Y10034739D01*
X2177000Y13823000D01*
X75823000Y13823000D01*
X75823000Y8688150D01*
X75823000Y8688150D01*
G37*
X75823000Y8688150D02*
X75460009Y9597803D01*
X75417583Y9661299D01*
X75034739Y9925845D01*
X73108894Y8000000D01*
X75034739Y6074155D01*
X75417583Y6338701D01*
X75823000Y7282526D01*
X75823000Y1177000D01*
X2177000Y1177000D01*
X2177000Y5965261D01*
X3074155Y5965261D01*
X3338701Y5582417D01*
X4390328Y5130694D01*
X5534773Y5115796D01*
X6597803Y5539991D01*
X6661299Y5582417D01*
X6925845Y5965261D01*
X5000000Y7891106D01*
X3074155Y5965261D01*
X2177000Y5965261D01*
X2177000Y7311850D01*
X2539991Y6402197D01*
X2582417Y6338701D01*
X2965261Y6074155D01*
X4891106Y8000000D01*
X5108894Y8000000D01*
X7034739Y6074155D01*
X7417583Y6338701D01*
X7486868Y6500000D01*
X8962676Y6500000D01*
X8962676Y4500000D01*
X9003577Y4294375D01*
X9120055Y4120055D01*
X9294375Y4003577D01*
X9500000Y3962676D01*
X11500000Y3962676D01*
X11705625Y4003577D01*
X11879945Y4120055D01*
X11996423Y4294375D01*
X12031953Y4473000D01*
X13500000Y4473000D01*
X13893016Y4551176D01*
X14226199Y4773801D01*
X17425397Y7973000D01*
X18973000Y7973000D01*
X18973000Y7424672D01*
X18869485Y7355505D01*
X18753007Y7181185D01*
X18712106Y6975560D01*
X18712106Y4826720D01*
X18753007Y4621095D01*
X18869485Y4446775D01*
X18934316Y4403456D01*
X18802661Y4271802D01*
X18722430Y4078107D01*
X18722430Y3107610D01*
X18854180Y2975860D01*
X18895786Y2975860D01*
X18959575Y2821860D01*
X18854180Y2821860D01*
X18722430Y2690110D01*
X18722430Y1719613D01*
X18802661Y1525918D01*
X18950909Y1377671D01*
X19144603Y1297440D01*
X19791250Y1297440D01*
X19923000Y1429190D01*
X19923000Y2220714D01*
X20077000Y2224555D01*
X20077000Y1429190D01*
X20208750Y1297440D01*
X20855397Y1297440D01*
X21049091Y1377671D01*
X21197339Y1525918D01*
X21277570Y1719613D01*
X21277570Y2690110D01*
X21145820Y2821860D01*
X21038589Y2821860D01*
X21097923Y2975860D01*
X21145820Y2975860D01*
X21277570Y3107610D01*
X21277570Y3341250D01*
X24473000Y3341250D01*
X24473000Y2645173D01*
X24553231Y2451478D01*
X24701479Y2303231D01*
X24895173Y2223000D01*
X25591250Y2223000D01*
X25723000Y2354750D01*
X25723000Y3473000D01*
X25877000Y3473000D01*
X25877000Y2354750D01*
X26008750Y2223000D01*
X26704827Y2223000D01*
X26898521Y2303231D01*
X27046769Y2451478D01*
X27101544Y2583719D01*
X40592613Y2583719D01*
X40668311Y2361917D01*
X41159533Y2168543D01*
X41687364Y2177872D01*
X42131689Y2361917D01*
X42207387Y2583719D01*
X41400000Y3391106D01*
X40592613Y2583719D01*
X27101544Y2583719D01*
X27127000Y2645173D01*
X27127000Y3341250D01*
X26995250Y3473000D01*
X25877000Y3473000D01*
X25723000Y3473000D01*
X24604750Y3473000D01*
X24473000Y3341250D01*
X21277570Y3341250D01*
X21277570Y4078107D01*
X21197339Y4271802D01*
X21065684Y4403456D01*
X21130515Y4446775D01*
X21246993Y4621095D01*
X21287894Y4826720D01*
X21287894Y6975560D01*
X21246993Y7181185D01*
X21130515Y7355505D01*
X21027000Y7424672D01*
X21027000Y7973000D01*
X24773000Y7973000D01*
X24773000Y7132141D01*
X24620055Y7029945D01*
X24503577Y6855625D01*
X24462676Y6650000D01*
X24462676Y5050000D01*
X24503577Y4844375D01*
X24601914Y4697205D01*
X24553231Y4648522D01*
X24473000Y4454827D01*
X24473000Y3758750D01*
X24604750Y3627000D01*
X25723000Y3627000D01*
X25723000Y3647000D01*
X25877000Y3647000D01*
X25877000Y3627000D01*
X26995250Y3627000D01*
X27127000Y3758750D01*
X27127000Y4454827D01*
X27046769Y4648522D01*
X26998086Y4697205D01*
X27096423Y4844375D01*
X27137324Y5050000D01*
X27137324Y5514000D01*
X29233876Y5514000D01*
X29233876Y3482000D01*
X29274777Y3276375D01*
X29391255Y3102055D01*
X29565575Y2985577D01*
X29771200Y2944676D01*
X33428800Y2944676D01*
X33634425Y2985577D01*
X33808745Y3102055D01*
X33925223Y3276375D01*
X33966124Y3482000D01*
X33966124Y4641250D01*
X35873000Y4641250D01*
X35873000Y3945173D01*
X35953231Y3751478D01*
X36101479Y3603231D01*
X36295173Y3523000D01*
X36991250Y3523000D01*
X37123000Y3654750D01*
X37123000Y4773000D01*
X37277000Y4773000D01*
X37277000Y3654750D01*
X37408750Y3523000D01*
X38104827Y3523000D01*
X38298521Y3603231D01*
X38435757Y3740467D01*
X40068543Y3740467D01*
X40077872Y3212636D01*
X40261917Y2768311D01*
X40483719Y2692613D01*
X41291106Y3500000D01*
X41508894Y3500000D01*
X42316281Y2692613D01*
X42538083Y2768311D01*
X42615659Y2965377D01*
X45205764Y2965377D01*
X45420939Y2445885D01*
X45837504Y2019903D01*
X46385376Y1785759D01*
X46623000Y1886687D01*
X46623000Y3203000D01*
X46777000Y3203000D01*
X46777000Y1886687D01*
X47014624Y1785759D01*
X47562496Y2019903D01*
X47979061Y2445885D01*
X48194236Y2965377D01*
X48093124Y3203000D01*
X46777000Y3203000D01*
X46623000Y3203000D01*
X45306876Y3203000D01*
X45205764Y2965377D01*
X42615659Y2965377D01*
X42731457Y3259533D01*
X42722128Y3787364D01*
X42538083Y4231689D01*
X42316281Y4307387D01*
X41508894Y3500000D01*
X41291106Y3500000D01*
X40483719Y4307387D01*
X40261917Y4231689D01*
X40068543Y3740467D01*
X38435757Y3740467D01*
X38446769Y3751478D01*
X38527000Y3945173D01*
X38527000Y4641250D01*
X38395250Y4773000D01*
X37277000Y4773000D01*
X37123000Y4773000D01*
X36004750Y4773000D01*
X35873000Y4641250D01*
X33966124Y4641250D01*
X33966124Y5514000D01*
X33925223Y5719625D01*
X33808745Y5893945D01*
X33634425Y6010423D01*
X33428800Y6051324D01*
X32627000Y6051324D01*
X32627000Y7973000D01*
X35867251Y7973000D01*
X35862676Y7950000D01*
X35862676Y6350000D01*
X35903577Y6144375D01*
X36001914Y5997205D01*
X35953231Y5948522D01*
X35873000Y5754827D01*
X35873000Y5058750D01*
X36004750Y4927000D01*
X37123000Y4927000D01*
X37123000Y4947000D01*
X37277000Y4947000D01*
X37277000Y4927000D01*
X38395250Y4927000D01*
X38527000Y5058750D01*
X38527000Y5754827D01*
X38446769Y5948522D01*
X38398086Y5997205D01*
X38496423Y6144375D01*
X38537324Y6350000D01*
X38537324Y7950000D01*
X38532749Y7973000D01*
X40373000Y7973000D01*
X40373000Y7282141D01*
X40220055Y7179945D01*
X40103577Y7005625D01*
X40062676Y6800000D01*
X40062676Y5200000D01*
X40103577Y4994375D01*
X40220055Y4820055D01*
X40394375Y4703577D01*
X40600000Y4662676D01*
X40727684Y4662676D01*
X40668311Y4638083D01*
X40592613Y4416281D01*
X41400000Y3608894D01*
X42207387Y4416281D01*
X42131689Y4638083D01*
X42069216Y4662676D01*
X42200000Y4662676D01*
X42405625Y4703577D01*
X42579945Y4820055D01*
X42696423Y4994375D01*
X42737324Y5200000D01*
X42737324Y6800000D01*
X42696423Y7005625D01*
X42579945Y7179945D01*
X42427000Y7282141D01*
X42427000Y7973000D01*
X42574602Y7973000D01*
X44273801Y6273801D01*
X44606984Y6051176D01*
X45000000Y5973000D01*
X45173518Y5973000D01*
X45143084Y5820000D01*
X45259320Y5235642D01*
X45590332Y4740248D01*
X45869448Y4553749D01*
X45837504Y4540097D01*
X45420939Y4114115D01*
X45205764Y3594623D01*
X45306876Y3357000D01*
X46623000Y3357000D01*
X46623000Y3377000D01*
X46777000Y3377000D01*
X46777000Y3357000D01*
X48093124Y3357000D01*
X48194236Y3594623D01*
X47979061Y4114115D01*
X47562496Y4540097D01*
X47530552Y4553749D01*
X47809668Y4740248D01*
X48140680Y5235642D01*
X48256916Y5820000D01*
X48228022Y5965261D01*
X51074155Y5965261D01*
X51338701Y5582417D01*
X52390328Y5130694D01*
X53534773Y5115796D01*
X54597803Y5539991D01*
X54661299Y5582417D01*
X54925845Y5965261D01*
X71074155Y5965261D01*
X71338701Y5582417D01*
X72390328Y5130694D01*
X73534773Y5115796D01*
X74597803Y5539991D01*
X74661299Y5582417D01*
X74925845Y5965261D01*
X73000000Y7891106D01*
X71074155Y5965261D01*
X54925845Y5965261D01*
X53000000Y7891106D01*
X51074155Y5965261D01*
X48228022Y5965261D01*
X48140680Y6404358D01*
X47809668Y6899752D01*
X47727000Y6954989D01*
X47727000Y7225011D01*
X47809668Y7280248D01*
X47933267Y7465227D01*
X50115796Y7465227D01*
X50539991Y6402197D01*
X50582417Y6338701D01*
X50965261Y6074155D01*
X52891106Y8000000D01*
X53108894Y8000000D01*
X55034739Y6074155D01*
X55417583Y6338701D01*
X55869306Y7390328D01*
X55870281Y7465227D01*
X70115796Y7465227D01*
X70539991Y6402197D01*
X70582417Y6338701D01*
X70965261Y6074155D01*
X72891106Y8000000D01*
X70965261Y9925845D01*
X70582417Y9661299D01*
X70130694Y8609672D01*
X70115796Y7465227D01*
X55870281Y7465227D01*
X55884204Y8534773D01*
X55460009Y9597803D01*
X55417583Y9661299D01*
X55034739Y9925845D01*
X53108894Y8000000D01*
X52891106Y8000000D01*
X50965261Y9925845D01*
X50582417Y9661299D01*
X50130694Y8609672D01*
X50115796Y7465227D01*
X47933267Y7465227D01*
X48140680Y7775642D01*
X48256916Y8360000D01*
X48140680Y8944358D01*
X47843552Y9389041D01*
X47998522Y9453231D01*
X48146769Y9601479D01*
X48227000Y9795173D01*
X48227000Y10034739D01*
X51074155Y10034739D01*
X53000000Y8108894D01*
X54925845Y10034739D01*
X71074155Y10034739D01*
X73000000Y8108894D01*
X74925845Y10034739D01*
X74661299Y10417583D01*
X73609672Y10869306D01*
X72465227Y10884204D01*
X71402197Y10460009D01*
X71338701Y10417583D01*
X71074155Y10034739D01*
X54925845Y10034739D01*
X54661299Y10417583D01*
X53609672Y10869306D01*
X52465227Y10884204D01*
X51402197Y10460009D01*
X51338701Y10417583D01*
X51074155Y10034739D01*
X48227000Y10034739D01*
X48227000Y10691250D01*
X48095250Y10823000D01*
X46777000Y10823000D01*
X46777000Y10803000D01*
X46623000Y10803000D01*
X46623000Y10823000D01*
X45304750Y10823000D01*
X45173000Y10691250D01*
X45173000Y9795173D01*
X45253231Y9601479D01*
X45401478Y9453231D01*
X45556448Y9389041D01*
X45259320Y8944358D01*
X45143084Y8360000D01*
X45155669Y8296729D01*
X43726199Y9726199D01*
X43393016Y9948824D01*
X43000000Y10027000D01*
X34921000Y10027000D01*
X34921000Y10893250D01*
X34789250Y11025000D01*
X33963000Y11025000D01*
X33963000Y11005000D01*
X33809000Y11005000D01*
X33809000Y11025000D01*
X32982750Y11025000D01*
X32851000Y10893250D01*
X32851000Y10027000D01*
X32633588Y10027000D01*
X32645324Y10086000D01*
X32645324Y12118000D01*
X32624473Y12222827D01*
X32851000Y12222827D01*
X32851000Y11310750D01*
X32982750Y11179000D01*
X33809000Y11179000D01*
X33809000Y12513250D01*
X33963000Y12513250D01*
X33963000Y11179000D01*
X34789250Y11179000D01*
X34921000Y11310750D01*
X34921000Y12004827D01*
X45173000Y12004827D01*
X45173000Y11108750D01*
X45304750Y10977000D01*
X46623000Y10977000D01*
X46623000Y12295250D01*
X46777000Y12295250D01*
X46777000Y10977000D01*
X48095250Y10977000D01*
X48227000Y11108750D01*
X48227000Y12004827D01*
X48146769Y12198521D01*
X47998522Y12346769D01*
X47804827Y12427000D01*
X46908750Y12427000D01*
X46777000Y12295250D01*
X46623000Y12295250D01*
X46491250Y12427000D01*
X45595173Y12427000D01*
X45401478Y12346769D01*
X45253231Y12198521D01*
X45173000Y12004827D01*
X34921000Y12004827D01*
X34921000Y12222827D01*
X34840769Y12416521D01*
X34692522Y12564769D01*
X34498827Y12645000D01*
X34094750Y12645000D01*
X33963000Y12513250D01*
X33809000Y12513250D01*
X33677250Y12645000D01*
X33273173Y12645000D01*
X33079478Y12564769D01*
X32931231Y12416521D01*
X32851000Y12222827D01*
X32624473Y12222827D01*
X32604423Y12323625D01*
X32487945Y12497945D01*
X32313625Y12614423D01*
X32108000Y12655324D01*
X31092000Y12655324D01*
X30886375Y12614423D01*
X30712055Y12497945D01*
X30595577Y12323625D01*
X30554676Y12118000D01*
X30554676Y10086000D01*
X30573000Y9993878D01*
X30573000Y6051324D01*
X29771200Y6051324D01*
X29565575Y6010423D01*
X29391255Y5893945D01*
X29274777Y5719625D01*
X29233876Y5514000D01*
X27137324Y5514000D01*
X27137324Y6650000D01*
X27096423Y6855625D01*
X26979945Y7029945D01*
X26827000Y7132141D01*
X26827000Y7973000D01*
X29314000Y7973000D01*
X29707016Y8051176D01*
X30040199Y8273801D01*
X30262824Y8606984D01*
X30341000Y9000000D01*
X30341000Y9993878D01*
X30359324Y10086000D01*
X30359324Y12118000D01*
X30318423Y12323625D01*
X30201945Y12497945D01*
X30027625Y12614423D01*
X29822000Y12655324D01*
X28806000Y12655324D01*
X28600375Y12614423D01*
X28426055Y12497945D01*
X28309577Y12323625D01*
X28268676Y12118000D01*
X28268676Y10086000D01*
X28280412Y10027000D01*
X28187324Y10027000D01*
X28187324Y12450000D01*
X28146423Y12655625D01*
X28029945Y12829945D01*
X27855625Y12946423D01*
X27650000Y12987324D01*
X25150000Y12987324D01*
X24944375Y12946423D01*
X24770055Y12829945D01*
X24653577Y12655625D01*
X24612676Y12450000D01*
X24612676Y10027000D01*
X17000000Y10027000D01*
X16606984Y9948824D01*
X16273801Y9726199D01*
X16273799Y9726196D01*
X13074602Y6527000D01*
X12031953Y6527000D01*
X11996423Y6705625D01*
X11879945Y6879945D01*
X11705625Y6996423D01*
X11595626Y7018303D01*
X11779061Y7205885D01*
X11994236Y7725377D01*
X11893124Y7963000D01*
X10577000Y7963000D01*
X10577000Y7943000D01*
X10423000Y7943000D01*
X10423000Y7963000D01*
X9106876Y7963000D01*
X9005764Y7725377D01*
X9220939Y7205885D01*
X9404374Y7018303D01*
X9294375Y6996423D01*
X9120055Y6879945D01*
X9003577Y6705625D01*
X8962676Y6500000D01*
X7486868Y6500000D01*
X7869306Y7390328D01*
X7884204Y8534773D01*
X7460009Y9597803D01*
X7417583Y9661299D01*
X7034739Y9925845D01*
X5108894Y8000000D01*
X4891106Y8000000D01*
X2965261Y9925845D01*
X2582417Y9661299D01*
X2177000Y8717474D01*
X2177000Y10034739D01*
X3074155Y10034739D01*
X5000000Y8108894D01*
X6925845Y10034739D01*
X6661299Y10417583D01*
X6283187Y10580000D01*
X8943084Y10580000D01*
X9059320Y9995642D01*
X9390332Y9500248D01*
X9669448Y9313749D01*
X9637504Y9300097D01*
X9220939Y8874115D01*
X9005764Y8354623D01*
X9106876Y8117000D01*
X10423000Y8117000D01*
X10423000Y8137000D01*
X10577000Y8137000D01*
X10577000Y8117000D01*
X11893124Y8117000D01*
X11994236Y8354623D01*
X11779061Y8874115D01*
X11362496Y9300097D01*
X11330552Y9313749D01*
X11609668Y9500248D01*
X11644916Y9553000D01*
X13011633Y9553000D01*
X13665187Y9423000D01*
X13734813Y9423000D01*
X14414841Y9558266D01*
X14991342Y9943471D01*
X15376547Y10519972D01*
X15511813Y11200000D01*
X15376547Y11880028D01*
X14991342Y12456529D01*
X14414841Y12841734D01*
X13734813Y12977000D01*
X13665187Y12977000D01*
X12985159Y12841734D01*
X12408658Y12456529D01*
X12023453Y11880028D01*
X11969144Y11607000D01*
X11644916Y11607000D01*
X11609668Y11659752D01*
X11114274Y11990764D01*
X10529916Y12107000D01*
X10470084Y12107000D01*
X9885726Y11990764D01*
X9390332Y11659752D01*
X9059320Y11164358D01*
X8943084Y10580000D01*
X6283187Y10580000D01*
X5609672Y10869306D01*
X4465227Y10884204D01*
X3402197Y10460009D01*
X3338701Y10417583D01*
X3074155Y10034739D01*
X2177000Y10034739D01*
X2177000Y13823000D01*
X75823000Y13823000D01*
X75823000Y8688150D01*
%TD*%
M02*
